<svg width="41" height="41" viewBox="0 0 41 41" fill="none" xmlns="http://www.w3.org/2000/svg">
<circle cx="20.5" cy="20.5" r="20.5" fill="#552400"/>
<path d="M31 25.9201V28.9201C31.0011 29.1986 30.9441 29.4743 30.8325 29.7294C30.7209 29.9846 30.5573 30.2137 30.3521 30.402C30.1468 30.5902 29.9046 30.7336 29.6407 30.8228C29.3769 30.912 29.0974 30.9452 28.82 30.9201C25.7428 30.5857 22.787 29.5342 20.19 27.8501C17.7738 26.3148 15.7253 24.2663 14.19 21.8501C12.5 19.2413 11.4482 16.2711 11.12 13.1801C11.095 12.9036 11.1279 12.6249 11.2165 12.3617C11.3051 12.0986 11.4476 11.8568 11.6348 11.6517C11.822 11.4466 12.0498 11.2828 12.3038 11.1706C12.5578 11.0584 12.8323 11.0004 13.11 11.0001H16.11C16.5953 10.9953 17.0658 11.1672 17.4338 11.4836C17.8017 11.8001 18.0421 12.2395 18.11 12.7201C18.2366 13.6802 18.4714 14.6228 18.81 15.5301C18.9445 15.888 18.9737 16.277 18.8939 16.651C18.8141 17.0249 18.6289 17.3682 18.36 17.6401L17.09 18.9101C18.5135 21.4136 20.5864 23.4865 23.09 24.9101L24.36 23.6401C24.6319 23.3712 24.9751 23.1859 25.3491 23.1062C25.7231 23.0264 26.1121 23.0556 26.47 23.1901C27.3773 23.5286 28.3199 23.7635 29.28 23.8901C29.7658 23.9586 30.2094 24.2033 30.5265 24.5776C30.8437 24.9519 31.0122 25.4297 31 25.9201Z" stroke="white" stroke-width="2" stroke-linecap="round" stroke-linejoin="round"/>
</svg>
